<svg xmlns="http://www.w3.org/2000/svg" xmlns:xlink="http://www.w3.org/1999/xlink" version="1.1" viewBox="0 0 3120 1449" style="background: #111111"><defs><style>@import url(https://fonts.googleapis.com/css?family=Open+Sans:400,700);</style></defs><defs joint-selector="defs"></defs><g joint-selector="layers"  transform="matrix(1,0,0,1,0,0)"><g ></g><g ><!--z-index:0--><!--z-index:1--><!--z-index:2--><!--z-index:3--><!--z-index:4--><!--z-index:5--><!--z-index:6--><!--z-index:7--><!--z-index:8--><!--z-index:9--><!--z-index:10--><!--z-index:11--><!--z-index:12--><!--z-index:13--><!--z-index:14--><!--z-index:15--><!--z-index:16--><!--z-index:17--><!--z-index:18--><g   id="j_140"  transform="translate(20,1407)"><g id="v-1929"><text  id="v-1930" font-size="22px" xml:space="preserve" y="0.8em" font-weight="normal" text-anchor="start" fill="#cccccc" pointer-events="none" display="block" font-family="Open Sans"><tspan dy="0" >miércoles, 1 de octubre de 2025, 11:46 p. m. hora estándar de Perú</tspan></text></g></g><!--z-index:19--><g   id="j_139"  transform="translate(20,1375)"><g id="v-1927"><text  id="v-1928" font-size="22px" xml:space="preserve" y="0.8em" font-weight="normal" text-anchor="start" fill="#cccccc" pointer-events="none" display="block" font-family="Open Sans"><tspan dy="0" >Component View (Level 3): Details the internal structure of the Identity Service, responsible for authentication and authorization.</tspan></text></g></g><!--z-index:20--><g   id="j_138"  transform="translate(20,1329)"><g id="v-1925"><text  id="v-1926" font-size="36px" xml:space="preserve" y="0.8em" font-weight="normal" text-anchor="start" fill="#cccccc" pointer-events="none" display="block" font-family="Open Sans"><tspan dy="0" >[Component] FoodChain Platform - Identity Service (IAM)</tspan></text></g></g><!--z-index:21--><g   id="j_142"  transform="translate(199,182)" style=""><g id="v-1944"><rect  id="v-1945" width="1990" height="1011" rx="0" ry="0" stroke-width="2" stroke-dasharray="20,20" pointer-events="none" stroke="#2a639c" fill="#111111"></rect><text  id="v-1946" font-size="24px" xml:space="preserve" y="972" font-weight="normal" text-anchor="start" pointer-events="visible" font-family="Open Sans" fill="#2a639c" transform="matrix(1,0,0,1,15,0)"><tspan dy="0" >Identity Service (IAM)</tspan></text><text  id="v-1947" font-size="17px" xml:space="preserve" y="996" font-weight="normal" text-anchor="start" pointer-events="visible" font-family="Open Sans" fill="#2a639c" transform="matrix(1,0,0,1,15,0)"><tspan dy="0" >[Container]</tspan></text><image  id="v-1948" pointer-events="visible"></image></g></g><!--z-index:22--><g   id="j_141"  transform="translate(219,202)" style=""><g  id="v-1937" style="opacity: 1;"><rect  id="v-1938" rx="1" ry="1" stroke-width="2" pointer-events="visiblePainted" fill="#85bbf0" stroke="#78a8d8" width="450" height="300" style="fill: rgb(133, 187, 240); stroke: rgb(120, 168, 216);"></rect><text  id="v-1939" font-size="34" xml:space="preserve" y="37.400000000000006" font-weight="bold" text-anchor="middle" pointer-events="visible" font-family="Open Sans" fill="#000000" dominant-baseline="hanging" transform="matrix(1,0,0,1,225,0)" style="fill: rgb(0, 0, 0);"><tspan dy="0" >Authentication</tspan><tspan dy="1.2em" x="0" >Controller (Interface)</tspan></text><text  id="v-1940" font-size="17" xml:space="preserve" y="120.2" text-anchor="middle" font-family="Open Sans" fill="#000000" dominant-baseline="hanging" transform="matrix(1,0,0,1,225,0)" style="display: block; fill: rgb(0, 0, 0);"><tspan dy="0" >[Component]</tspan></text><text  id="v-1941" font-size="24" xml:space="preserve" y="152.2" text-anchor="middle" font-family="Open Sans" fill="#000000" dominant-baseline="hanging" transform="matrix(1,0,0,1,225,0)" style="display: block; fill: rgb(0, 0, 0);"><tspan dy="0" >Exposes REST endpoints, receives</tspan><tspan dy="1.2em" x="0" >commands (e.g., LoginCommand),</tspan><tspan dy="1.2em" x="0" >and delegates to the application</tspan><tspan dy="1.2em" x="0" >layer.</tspan></text><g  id="v-1942" color="#000000" transform="matrix(1,0,0,1,222.5,268)" style="fill: rgb(0, 0, 0);" display="none"><g ></g><g ></g><g ></g><g ></g></g><image  id="v-1943"></image></g></g><!--z-index:23--><g   id="j_143"  transform="translate(219,802)" style=""><g  id="v-1955" style="opacity: 1;"><rect  id="v-1956" rx="1" ry="1" stroke-width="2" pointer-events="visiblePainted" fill="#85bbf0" stroke="#78a8d8" width="450" height="300" style="fill: rgb(133, 187, 240); stroke: rgb(120, 168, 216);"></rect><text  id="v-1957" font-size="34" xml:space="preserve" y="86.6" font-weight="bold" text-anchor="middle" pointer-events="visible" font-family="Open Sans" fill="#000000" dominant-baseline="hanging" transform="matrix(1,0,0,1,225,0)" style="fill: rgb(0, 0, 0);"><tspan dy="0" >User Profile Controller</tspan></text><text  id="v-1958" font-size="17" xml:space="preserve" y="128.6" text-anchor="middle" font-family="Open Sans" fill="#000000" dominant-baseline="hanging" transform="matrix(1,0,0,1,225,0)" style="display: block; fill: rgb(0, 0, 0);"><tspan dy="0" >[Component]</tspan></text><text  id="v-1959" font-size="24" xml:space="preserve" y="160.6" text-anchor="middle" font-family="Open Sans" fill="#000000" dominant-baseline="hanging" transform="matrix(1,0,0,1,225,0)" style="display: block; fill: rgb(0, 0, 0);"><tspan dy="0" >Exposes REST endpoints for user</tspan><tspan dy="1.2em" x="0" >profile management.</tspan></text><g  id="v-1960" color="#000000" transform="matrix(1,0,0,1,222.5,268)" style="fill: rgb(0, 0, 0);" display="none"><g ></g><g ></g><g ></g><g ></g></g><image  id="v-1961"></image></g></g><!--z-index:24--><g   id="j_144"  transform="translate(969,202)" style=""><g  id="v-1968" style="opacity: 1;"><rect  id="v-1969" rx="1" ry="1" stroke-width="2" pointer-events="visiblePainted" fill="#85bbf0" stroke="#78a8d8" width="450" height="300" style="fill: rgb(133, 187, 240); stroke: rgb(120, 168, 216);"></rect><text  id="v-1970" font-size="34" xml:space="preserve" y="57.80000000000001" font-weight="bold" text-anchor="middle" pointer-events="visible" font-family="Open Sans" fill="#000000" dominant-baseline="hanging" transform="matrix(1,0,0,1,225,0)" style="fill: rgb(0, 0, 0);"><tspan dy="0" >Application Service</tspan></text><text  id="v-1971" font-size="17" xml:space="preserve" y="99.80000000000001" text-anchor="middle" font-family="Open Sans" fill="#000000" dominant-baseline="hanging" transform="matrix(1,0,0,1,225,0)" style="display: block; fill: rgb(0, 0, 0);"><tspan dy="0" >[Component]</tspan></text><text  id="v-1972" font-size="24" xml:space="preserve" y="131.8" text-anchor="middle" font-family="Open Sans" fill="#000000" dominant-baseline="hanging" transform="matrix(1,0,0,1,225,0)" style="display: block; fill: rgb(0, 0, 0);"><tspan dy="0" >Orchestrates use cases</tspan><tspan dy="1.2em" x="0" >(commands), manages</tspan><tspan dy="1.2em" x="0" >transactions, and loads aggregates</tspan><tspan dy="1.2em" x="0" >to execute business logic.</tspan></text><g  id="v-1973" color="#000000" transform="matrix(1,0,0,1,222.5,268)" style="fill: rgb(0, 0, 0);" display="none"><g ></g><g ></g><g ></g><g ></g></g><image  id="v-1974"></image></g></g><!--z-index:25--><g   id="j_145"  transform="translate(1719,802)" style=""><g  id="v-1981" style="opacity: 1;"><rect  id="v-1982" rx="1" ry="1" stroke-width="2" pointer-events="visiblePainted" fill="#85bbf0" stroke="#78a8d8" width="450" height="300" style="fill: rgb(133, 187, 240); stroke: rgb(120, 168, 216);"></rect><text  id="v-1983" font-size="34" xml:space="preserve" y="43.400000000000006" font-weight="bold" text-anchor="middle" pointer-events="visible" font-family="Open Sans" fill="#000000" dominant-baseline="hanging" transform="matrix(1,0,0,1,225,0)" style="fill: rgb(0, 0, 0);"><tspan dy="0" >User (Aggregate Root)</tspan></text><text  id="v-1984" font-size="17" xml:space="preserve" y="85.4" text-anchor="middle" font-family="Open Sans" fill="#000000" dominant-baseline="hanging" transform="matrix(1,0,0,1,225,0)" style="display: block; fill: rgb(0, 0, 0);"><tspan dy="0" >[Component]</tspan></text><text  id="v-1985" font-size="24" xml:space="preserve" y="117.4" text-anchor="middle" font-family="Open Sans" fill="#000000" dominant-baseline="hanging" transform="matrix(1,0,0,1,225,0)" style="display: block; fill: rgb(0, 0, 0);"><tspan dy="0" >The heart of the IAM domain.</tspan><tspan dy="1.2em" x="0" >Encapsulates and protects the</tspan><tspan dy="1.2em" x="0" >state and business rules</tspan><tspan dy="1.2em" x="0" >(invariants) for a user, their roles,</tspan><tspan dy="1.2em" x="0" >and credentials.</tspan></text><g  id="v-1986" color="#000000" transform="matrix(1,0,0,1,222.5,268)" style="fill: rgb(0, 0, 0);" display="none"><g ></g><g ></g><g ></g><g ></g></g><image  id="v-1987"></image></g></g><!--z-index:26--><g   id="j_146"  transform="translate(1719,202)" style=""><g  id="v-1994" style="opacity: 1;"><rect  id="v-1995" rx="1" ry="1" stroke-width="2" pointer-events="visiblePainted" fill="#85bbf0" stroke="#78a8d8" width="450" height="300" style="fill: rgb(133, 187, 240); stroke: rgb(120, 168, 216);"></rect><text  id="v-1996" font-size="34" xml:space="preserve" y="51.80000000000001" font-weight="bold" text-anchor="middle" pointer-events="visible" font-family="Open Sans" fill="#000000" dominant-baseline="hanging" transform="matrix(1,0,0,1,225,0)" style="fill: rgb(0, 0, 0);"><tspan dy="0" >User Repository</tspan><tspan dy="1.2em" x="0" >(Interface)</tspan></text><text  id="v-1997" font-size="17" xml:space="preserve" y="134.60000000000002" text-anchor="middle" font-family="Open Sans" fill="#000000" dominant-baseline="hanging" transform="matrix(1,0,0,1,225,0)" style="display: block; fill: rgb(0, 0, 0);"><tspan dy="0" >[Component]</tspan></text><text  id="v-1998" font-size="24" xml:space="preserve" y="166.60000000000002" text-anchor="middle" font-family="Open Sans" fill="#000000" dominant-baseline="hanging" transform="matrix(1,0,0,1,225,0)" style="display: block; fill: rgb(0, 0, 0);"><tspan dy="0" >Defines the contract for persisting</tspan><tspan dy="1.2em" x="0" >the 'User' aggregate, decoupling</tspan><tspan dy="1.2em" x="0" >the domain from infrastructure.</tspan></text><g  id="v-1999" color="#000000" transform="matrix(1,0,0,1,222.5,268)" style="fill: rgb(0, 0, 0);" display="none"><g ></g><g ></g><g ></g><g ></g></g><image  id="v-2000"></image></g></g><!--z-index:27--><g   id="j_147"  transform="translate(2469,202)" style=""><g  id="v-2004" style="opacity: 1;"><path  d="M 0,30 a 225,30 0,0,0 450 0 a 225,30 0,0,0 -450 0 l 0,240 a 225,30 0,0,0 450 0 l 0,-240" id="v-2005" stroke-width="2" pointer-events="visiblePainted" fill="#438dd5" stroke="#3c7fc0" style="fill: rgb(67, 141, 213); stroke: rgb(60, 127, 192);"></path><rect  id="v-2006" stroke-width="0" pointer-events="visiblePainted" fill="none" stroke="none" width="450" height="270" x="0" y="30"></rect><text  id="v-2007" font-size="34" xml:space="preserve" y="72.80000000000001" font-weight="bold" text-anchor="middle" pointer-events="visible" font-family="Open Sans" fill="#ffffff" dominant-baseline="hanging" transform="matrix(1,0,0,1,225,0)" style="fill: rgb(255, 255, 255);"><tspan dy="0" >User Database</tspan></text><text  id="v-2008" font-size="17" xml:space="preserve" y="114.80000000000001" text-anchor="middle" font-family="Open Sans" fill="#ffffff" dominant-baseline="hanging" transform="matrix(1,0,0,1,225,0)" style="display: block; fill: rgb(255, 255, 255);"><tspan dy="0" >[Container: MySQL]</tspan></text><text  id="v-2009" font-size="24" xml:space="preserve" y="146.8" text-anchor="middle" font-family="Open Sans" fill="#ffffff" dominant-baseline="hanging" transform="matrix(1,0,0,1,225,0)" style="display: block; fill: rgb(255, 255, 255);"><tspan dy="0" >Relational database exclusively</tspan><tspan dy="1.2em" x="0" >owned by the Identity Service.</tspan><tspan dy="1.2em" x="0" >Stores user profiles, hashed</tspan><tspan dy="1.2em" x="0" >credentials, and roles.</tspan></text><g  id="v-2010" font-weight="normal" text-anchor="middle" color="#ffffff" transform="matrix(1,0,0,1,222.5,268)" style="fill: rgb(255, 255, 255);" display="none"><g ></g><g ></g><g ></g><g ></g></g><image  id="v-2011"></image></g></g><!--z-index:28--><g   id="j_148" ><path  stroke="#cccccc" d="M 669 352 L 969 352" id="v-2024" stroke-width="2" stroke-dasharray="30 30" fill="none" style="opacity: 1;"></path><path  fill="black" stroke="black" d="M 0 0 0 0" transform="matrix(1,0,0,1,669,352)"></path><path  fill="#cccccc" stroke="#cccccc" d="M 20 0 L 0 10 L 20 20 z" id="v-2026" transform="matrix(-1,1.2246467991473532e-16,-1.2246467991473532e-16,-1,969,362)" style="opacity: 1;"></path><path  d="M 669 352 L 969 352" id="v-2025" fill="none" style="cursor: auto; pointer-events: visiblepainted;"></path><g ><g id="v-2018"  label-idx="0" cursor="move" transform="matrix(1,0,0,1,819,352)" style="cursor: default; opacity: 1;"><rect joint-selector="rect" id="v-2021" fill="#111111" rx="3" ry="3" pointer-events="none" width="169.1307373046875" height="119.55000305175781" transform="matrix(1,0,0,1,-84.5,-59.7)"></rect><text joint-selector="text" id="v-2020" font-size="24px" xml:space="preserve" y="0.8em" fill="#cccccc" text-anchor="middle" pointer-events="none" font-family="Open Sans" font-weight="normal" transform="matrix(1,0,0,1,0,-53.6)"><tspan dy="0" >Delegates</tspan><tspan dy="1.2em" x="0" >handling of the</tspan><tspan dy="1.2em" x="0" >authentication</tspan><tspan dy="1.2em" x="0" >command</tspan></text></g><g id="v-2019"  label-idx="1" cursor="move" transform="matrix(1,0,0,1,809,407.20001220703125)" style="cursor: default; opacity: 1;"><rect joint-selector="rect" id="v-2023" fill="#ffffff" rx="3" ry="3"  width="0" height="0" transform="matrix(1,0,0,1,0,0)" display="none"></rect><text joint-selector="text" id="v-2022" fill="#000000" font-size="14" text-anchor="middle" pointer-events="none"></text></g></g><g  display="none" style="display: none;"></g><g  id="v-2028" display="none"><g  id="v-2016"><path  end="source" d="M 26 0 L 0 13 L 26 26 z"></path></g><g  id="v-2017"><path  end="target" d="M 26 0 L 0 13 L 26 26 z"></path></g></g><g  id="v-2027" display="none"><g  id="v-2015" transform="translate(709, 352) "><g  event="remove"><circle r="11"></circle><path transform="scale(.8) translate(-16, -16)" d="M24.778,21.419 19.276,15.917 24.777,10.415 21.949,7.585 16.447,13.087 10.945,7.585 8.117,10.415 13.618,15.917 8.116,21.419 10.946,24.248 16.447,18.746 21.948,24.248z"></path><title>Remove link.</title></g><g  event="link:options"><circle r="11" transform="translate(25)"></circle><path fill="white" transform="scale(.55) translate(29, -16)" d="M31.229,17.736c0.064-0.571,0.104-1.148,0.104-1.736s-0.04-1.166-0.104-1.737l-4.377-1.557c-0.218-0.716-0.504-1.401-0.851-2.05l1.993-4.192c-0.725-0.91-1.549-1.734-2.458-2.459l-4.193,1.994c-0.647-0.347-1.334-0.632-2.049-0.849l-1.558-4.378C17.165,0.708,16.588,0.667,16,0.667s-1.166,0.041-1.737,0.105L12.707,5.15c-0.716,0.217-1.401,0.502-2.05,0.849L6.464,4.005C5.554,4.73,4.73,5.554,4.005,6.464l1.994,4.192c-0.347,0.648-0.632,1.334-0.849,2.05l-4.378,1.557C0.708,14.834,0.667,15.412,0.667,16s0.041,1.165,0.105,1.736l4.378,1.558c0.217,0.715,0.502,1.401,0.849,2.049l-1.994,4.193c0.725,0.909,1.549,1.733,2.459,2.458l4.192-1.993c0.648,0.347,1.334,0.633,2.05,0.851l1.557,4.377c0.571,0.064,1.148,0.104,1.737,0.104c0.588,0,1.165-0.04,1.736-0.104l1.558-4.377c0.715-0.218,1.399-0.504,2.049-0.851l4.193,1.993c0.909-0.725,1.733-1.549,2.458-2.458l-1.993-4.193c0.347-0.647,0.633-1.334,0.851-2.049L31.229,17.736zM16,20.871c-2.69,0-4.872-2.182-4.872-4.871c0-2.69,2.182-4.872,4.872-4.872c2.689,0,4.871,2.182,4.871,4.872C20.871,18.689,18.689,20.871,16,20.871z"></path><title>Link options.</title></g></g></g></g><!--z-index:29--><g   id="j_149" ><path  stroke="#cccccc" d="M 1419 442 L 1560 498 C 1566 500.66666666666663 1572 500.66666666666663 1578 498 L 1719 442" id="v-2042" stroke-width="2" stroke-dasharray="30 30" fill="none" style="opacity: 1;"></path><path  fill="black" stroke="black" d="M 0 0 0 0" transform="matrix(0.9284766955435519,0.371390664708372,-0.371390664708372,0.9284766955435519,1419,442)"></path><path  fill="#cccccc" stroke="#cccccc" d="M 20 0 L 0 10 L 20 20 z" id="v-2044" transform="matrix(-0.928476707906966,0.37139063379983406,-0.37139063379983406,-0.928476707906966,1722.7138833780054,451.28475844614945)" style="opacity: 1;"></path><path  d="M 1419 442 L 1560 498 C 1566 500.66666666666663 1572 500.66666666666663 1578 498 L 1719 442" id="v-2043" fill="none" style="cursor: auto; pointer-events: visiblepainted;"></path><g ><g id="v-2036"  label-idx="0" cursor="move" transform="matrix(1,0,0,1,1569,500)" style="cursor: default; opacity: 1;"><rect joint-selector="rect" id="v-2039" fill="#111111" rx="3" ry="3" pointer-events="none" width="180.87730407714844" height="61.95000457763672" transform="matrix(1,0,0,1,-90.4,-31)"></rect><text joint-selector="text" id="v-2038" font-size="24px" xml:space="preserve" y="0.8em" fill="#cccccc" text-anchor="middle" pointer-events="none" font-family="Open Sans" font-weight="normal" transform="matrix(1,0,0,1,0,-24.8)"><tspan dy="0" >Uses to load the</tspan><tspan dy="1.2em" x="0" >'User' aggregate</tspan></text></g><g id="v-2037"  label-idx="1" cursor="move" transform="matrix(1,0,0,1,1559,526.4000244140625)" style="cursor: default; opacity: 1;"><rect joint-selector="rect" id="v-2041" fill="#ffffff" rx="3" ry="3"  width="0" height="0" transform="matrix(1,0,0,1,0,0)" display="none"></rect><text joint-selector="text" id="v-2040" fill="#000000" font-size="14" text-anchor="middle" pointer-events="none"></text></g></g><g  display="none" style="display: none;"><g  transform="translate(1569, 502)" id="v-2033"><circle  idx="0" r="10"></circle><path  idx="0" d="M16,5.333c-7.732,0-14,4.701-14,10.5c0,1.982,0.741,3.833,2.016,5.414L2,25.667l5.613-1.441c2.339,1.317,5.237,2.107,8.387,2.107c7.732,0,14-4.701,14-10.5C30,10.034,23.732,5.333,16,5.333z" transform="translate(5, -33)"></path><path  idx="0" transform="scale(.8) translate(9.5, -37)" d="M24.778,21.419 19.276,15.917 24.777,10.415 21.949,7.585 16.447,13.087 10.945,7.585 8.117,10.415 13.618,15.917 8.116,21.419 10.946,24.248 16.447,18.746 21.948,24.248z"><title>Remove vertex.</title></path></g></g><g  id="v-2046" display="none"><g  id="v-2034"><path  end="source" d="M 26 0 L 0 13 L 26 26 z"></path></g><g  id="v-2035"><path  end="target" d="M 26 0 L 0 13 L 26 26 z"></path></g></g><g  id="v-2045" display="none"><g  id="v-2032" transform="translate(1456.1753225311058, 456.76466710455264) "><g  event="remove"><circle r="11"></circle><path transform="scale(.8) translate(-16, -16)" d="M24.778,21.419 19.276,15.917 24.777,10.415 21.949,7.585 16.447,13.087 10.945,7.585 8.117,10.415 13.618,15.917 8.116,21.419 10.946,24.248 16.447,18.746 21.948,24.248z"></path><title>Remove link.</title></g><g  event="link:options"><circle r="11" transform="translate(25)"></circle><path fill="white" transform="scale(.55) translate(29, -16)" d="M31.229,17.736c0.064-0.571,0.104-1.148,0.104-1.736s-0.04-1.166-0.104-1.737l-4.377-1.557c-0.218-0.716-0.504-1.401-0.851-2.05l1.993-4.192c-0.725-0.91-1.549-1.734-2.458-2.459l-4.193,1.994c-0.647-0.347-1.334-0.632-2.049-0.849l-1.558-4.378C17.165,0.708,16.588,0.667,16,0.667s-1.166,0.041-1.737,0.105L12.707,5.15c-0.716,0.217-1.401,0.502-2.05,0.849L6.464,4.005C5.554,4.73,4.73,5.554,4.005,6.464l1.994,4.192c-0.347,0.648-0.632,1.334-0.849,2.05l-4.378,1.557C0.708,14.834,0.667,15.412,0.667,16s0.041,1.165,0.105,1.736l4.378,1.558c0.217,0.715,0.502,1.401,0.849,2.049l-1.994,4.193c0.725,0.909,1.549,1.733,2.459,2.458l4.192-1.993c0.648,0.347,1.334,0.633,2.05,0.851l1.557,4.377c0.571,0.064,1.148,0.104,1.737,0.104c0.588,0,1.165-0.04,1.736-0.104l1.558-4.377c0.715-0.218,1.399-0.504,2.049-0.851l4.193,1.993c0.909-0.725,1.733-1.549,2.458-2.458l-1.993-4.193c0.347-0.647,0.633-1.334,0.851-2.049L31.229,17.736zM16,20.871c-2.69,0-4.872-2.182-4.872-4.871c0-2.69,2.182-4.872,4.872-4.872c2.689,0,4.871,2.182,4.871,4.872C20.871,18.689,18.689,20.871,16,20.871z"></path><title>Link options.</title></g></g></g></g><!--z-index:30--><g   id="j_150" ><path  stroke="#cccccc" d="M 2169 442 L 2310 498 C 2316 500.66666666666663 2322 500.66666666666663 2328 498 L 2469 442" id="v-2063" stroke-width="2" stroke-dasharray="30 30" fill="none" style="opacity: 1;"></path><path  fill="black" stroke="black" d="M 0 0 0 0" transform="matrix(0.9284766955435519,0.371390664708372,-0.371390664708372,0.9284766955435519,2169,442)"></path><path  fill="#cccccc" stroke="#cccccc" d="M 20 0 L 0 10 L 20 20 z" id="v-2065" transform="matrix(-0.928476707906966,0.37139063379983406,-0.37139063379983406,-0.928476707906966,2472.714005448318,451.28475844614945)" style="opacity: 1;"></path><path  d="M 2169 442 L 2310 498 C 2316 500.66666666666663 2322 500.66666666666663 2328 498 L 2469 442" id="v-2064" fill="none" style="cursor: auto; pointer-events: visiblepainted;"></path><g ><g id="v-2054"  label-idx="0" cursor="move" transform="matrix(1,0,0,1,2319,486.5)" style="cursor: default; opacity: 1;"><rect joint-selector="rect" id="v-2058" fill="#111111" rx="3" ry="3" pointer-events="none" width="184.5492401123047" height="33.150001525878906" transform="matrix(1,0,0,1,-92.3,-16.6)"></rect><text joint-selector="text" id="v-2057" font-size="24px" xml:space="preserve" y="0.8em" fill="#cccccc" text-anchor="middle" pointer-events="none" font-family="Open Sans" font-weight="normal" transform="matrix(1,0,0,1,0,-10.4)"><tspan dy="0" >Reads data from</tspan></text></g><g id="v-2055"  label-idx="1" cursor="move" transform="matrix(1,0,0,1,2319,517)" style="cursor: default; opacity: 1;"><rect joint-selector="rect" id="v-2060" fill="#111111" rx="3" ry="3"  pointer-events="none" width="49.961524963378906" height="23.400002479553223" transform="matrix(1,0,0,1,-24.8,-11.7)" style="display: block;"></rect><text joint-selector="text" id="v-2059" font-size="17px" xml:space="preserve" y="0.8em" fill="#cccccc" text-anchor="middle" pointer-events="none"  font-family="Open Sans" font-weight="normal" transform="matrix(1,0,0,1,0,-7.7)" style="display: block;"><tspan dy="0" >[JDBC]</tspan></text></g><g id="v-2056"  label-idx="2" cursor="move" transform="matrix(1,0,0,1,2309,525.5)" style="cursor: default; opacity: 1;"><rect joint-selector="rect" id="v-2062" fill="#ffffff" rx="3" ry="3"  width="0" height="0" transform="matrix(1,0,0,1,0,0)" display="none"></rect><text joint-selector="text" id="v-2061" fill="#000000" font-size="14" text-anchor="middle" pointer-events="none"></text></g></g><g  display="none" style="display: none;"><g  transform="translate(2319, 502)" id="v-2051"><circle  idx="0" r="10"></circle><path  idx="0" d="M16,5.333c-7.732,0-14,4.701-14,10.5c0,1.982,0.741,3.833,2.016,5.414L2,25.667l5.613-1.441c2.339,1.317,5.237,2.107,8.387,2.107c7.732,0,14-4.701,14-10.5C30,10.034,23.732,5.333,16,5.333z" transform="translate(5, -33)"></path><path  idx="0" transform="scale(.8) translate(9.5, -37)" d="M24.778,21.419 19.276,15.917 24.777,10.415 21.949,7.585 16.447,13.087 10.945,7.585 8.117,10.415 13.618,15.917 8.116,21.419 10.946,24.248 16.447,18.746 21.948,24.248z"><title>Remove vertex.</title></path></g></g><g  id="v-2067" display="none"><g  id="v-2052"><path  end="source" d="M 26 0 L 0 13 L 26 26 z"></path></g><g  id="v-2053"><path  end="target" d="M 26 0 L 0 13 L 26 26 z"></path></g></g><g  id="v-2066" display="none"><g  id="v-2050" transform="translate(2206.175322531106, 456.76466710455264) "><g  event="remove"><circle r="11"></circle><path transform="scale(.8) translate(-16, -16)" d="M24.778,21.419 19.276,15.917 24.777,10.415 21.949,7.585 16.447,13.087 10.945,7.585 8.117,10.415 13.618,15.917 8.116,21.419 10.946,24.248 16.447,18.746 21.948,24.248z"></path><title>Remove link.</title></g><g  event="link:options"><circle r="11" transform="translate(25)"></circle><path fill="white" transform="scale(.55) translate(29, -16)" d="M31.229,17.736c0.064-0.571,0.104-1.148,0.104-1.736s-0.04-1.166-0.104-1.737l-4.377-1.557c-0.218-0.716-0.504-1.401-0.851-2.05l1.993-4.192c-0.725-0.91-1.549-1.734-2.458-2.459l-4.193,1.994c-0.647-0.347-1.334-0.632-2.049-0.849l-1.558-4.378C17.165,0.708,16.588,0.667,16,0.667s-1.166,0.041-1.737,0.105L12.707,5.15c-0.716,0.217-1.401,0.502-2.05,0.849L6.464,4.005C5.554,4.73,4.73,5.554,4.005,6.464l1.994,4.192c-0.347,0.648-0.632,1.334-0.849,2.05l-4.378,1.557C0.708,14.834,0.667,15.412,0.667,16s0.041,1.165,0.105,1.736l4.378,1.558c0.217,0.715,0.502,1.401,0.849,2.049l-1.994,4.193c0.725,0.909,1.549,1.733,2.459,2.458l4.192-1.993c0.648,0.347,1.334,0.633,2.05,0.851l1.557,4.377c0.571,0.064,1.148,0.104,1.737,0.104c0.588,0,1.165-0.04,1.736-0.104l1.558-4.377c0.715-0.218,1.399-0.504,2.049-0.851l4.193,1.993c0.909-0.725,1.733-1.549,2.458-2.458l-1.993-4.193c0.347-0.647,0.633-1.334,0.851-2.049L31.229,17.736zM16,20.871c-2.69,0-4.872-2.182-4.872-4.871c0-2.69,2.182-4.872,4.872-4.872c2.689,0,4.871,2.182,4.871,4.872C20.871,18.689,18.689,20.871,16,20.871z"></path><title>Link options.</title></g></g></g></g><!--z-index:31--><g   id="j_151" ><path  stroke="#cccccc" d="M 1382 502 L 1757 802" id="v-2080" stroke-width="2" stroke-dasharray="30 30" fill="none" style="opacity: 1;"></path><path  fill="black" stroke="black" d="M 0 0 0 0" transform="matrix(0.7808688000832672,0.624695059254128,-0.624695059254128,0.7808688000832672,1381.5,502)"></path><path  fill="#cccccc" stroke="#cccccc" d="M 20 0 L 0 10 L 20 20 z" id="v-2082" transform="matrix(-0.7808688416748548,-0.6246950072646416,0.6246950072646416,-0.7808688416748548,1750.2530225237897,809.8086902472074)" style="opacity: 1;"></path><path  d="M 1382 502 L 1757 802" id="v-2081" fill="none" style="cursor: auto; pointer-events: visiblepainted;"></path><g ><g id="v-2074"  label-idx="0" cursor="move" transform="matrix(1,0,0,1,1569.5,652)" style="cursor: default; opacity: 1;"><rect joint-selector="rect" id="v-2077" fill="#111111" rx="3" ry="3" pointer-events="none" width="196.63485717773438" height="148.35001373291016" transform="matrix(1,0,0,1,-98,-74.2)"></rect><text joint-selector="text" id="v-2076" font-size="24px" xml:space="preserve" y="0.8em" fill="#cccccc" text-anchor="middle" pointer-events="none" font-family="Open Sans" font-weight="normal" transform="matrix(1,0,0,1,0,-68)"><tspan dy="0" >Invokes domain</tspan><tspan dy="1.2em" x="0" >behavior (e.g.,</tspan><tspan dy="1.2em" x="0" >user.</tspan><tspan dy="1.2em" x="0" >changePassword(</tspan><tspan dy="1.2em" x="0" >))</tspan></text></g><g id="v-2075"  label-idx="1" cursor="move" transform="matrix(1,0,0,1,1559.5,721.5999755859375)" style="cursor: default; opacity: 1;"><rect joint-selector="rect" id="v-2079" fill="#ffffff" rx="3" ry="3"  width="0" height="0" transform="matrix(1,0,0,1,0,0)" display="none"></rect><text joint-selector="text" id="v-2078" fill="#000000" font-size="14" text-anchor="middle" pointer-events="none"></text></g></g><g  display="none" style="display: none;"></g><g  id="v-2084" display="none"><g  id="v-2072"><path  end="source" d="M 26 0 L 0 13 L 26 26 z"></path></g><g  id="v-2073"><path  end="target" d="M 26 0 L 0 13 L 26 26 z"></path></g></g><g  id="v-2083" display="none"><g  id="v-2071" transform="translate(1413.2347523777212, 526.987801902177) "><g  event="remove"><circle r="11"></circle><path transform="scale(.8) translate(-16, -16)" d="M24.778,21.419 19.276,15.917 24.777,10.415 21.949,7.585 16.447,13.087 10.945,7.585 8.117,10.415 13.618,15.917 8.116,21.419 10.946,24.248 16.447,18.746 21.948,24.248z"></path><title>Remove link.</title></g><g  event="link:options"><circle r="11" transform="translate(25)"></circle><path fill="white" transform="scale(.55) translate(29, -16)" d="M31.229,17.736c0.064-0.571,0.104-1.148,0.104-1.736s-0.04-1.166-0.104-1.737l-4.377-1.557c-0.218-0.716-0.504-1.401-0.851-2.05l1.993-4.192c-0.725-0.91-1.549-1.734-2.458-2.459l-4.193,1.994c-0.647-0.347-1.334-0.632-2.049-0.849l-1.558-4.378C17.165,0.708,16.588,0.667,16,0.667s-1.166,0.041-1.737,0.105L12.707,5.15c-0.716,0.217-1.401,0.502-2.05,0.849L6.464,4.005C5.554,4.73,4.73,5.554,4.005,6.464l1.994,4.192c-0.347,0.648-0.632,1.334-0.849,2.05l-4.378,1.557C0.708,14.834,0.667,15.412,0.667,16s0.041,1.165,0.105,1.736l4.378,1.558c0.217,0.715,0.502,1.401,0.849,2.049l-1.994,4.193c0.725,0.909,1.549,1.733,2.459,2.458l4.192-1.993c0.648,0.347,1.334,0.633,2.05,0.851l1.557,4.377c0.571,0.064,1.148,0.104,1.737,0.104c0.588,0,1.165-0.04,1.736-0.104l1.558-4.377c0.715-0.218,1.399-0.504,2.049-0.851l4.193,1.993c0.909-0.725,1.733-1.549,2.458-2.458l-1.993-4.193c0.347-0.647,0.633-1.334,0.851-2.049L31.229,17.736zM16,20.871c-2.69,0-4.872-2.182-4.872-4.871c0-2.69,2.182-4.872,4.872-4.872c2.689,0,4.871,2.182,4.871,4.872C20.871,18.689,18.689,20.871,16,20.871z"></path><title>Link options.</title></g></g></g></g><!--z-index:32--><g   id="j_152" ><path  stroke="#cccccc" d="M 1419 262 L 1560 206 C 1566 203.33333333333331 1572 203.33333333333331 1578 206 L 1719 262" id="v-2098" stroke-width="2" stroke-dasharray="30 30" fill="none" style="opacity: 1;"></path><path  fill="black" stroke="black" d="M 0 0 0 0" transform="matrix(0.9284766089996245,-0.3713908810681253,0.3713908810681253,0.9284766089996245,1419,262)"></path><path  fill="#cccccc" stroke="#cccccc" d="M 20 0 L 0 10 L 20 20 z" id="v-2100" transform="matrix(-0.928476707906966,-0.3713906337998342,0.3713906337998342,-0.928476707906966,1715.2860707020088,271.2847757119899)" style="opacity: 1;"></path><path  d="M 1419 262 L 1560 206 C 1566 203.33333333333331 1572 203.33333333333331 1578 206 L 1719 262" id="v-2099" fill="none" style="cursor: auto; pointer-events: visiblepainted;"></path><g ><g id="v-2092"  label-idx="0" cursor="move" transform="matrix(1,0,0,1,1569,204)" style="cursor: default; opacity: 1;"><rect joint-selector="rect" id="v-2095" fill="#111111" rx="3" ry="3" pointer-events="none" width="174.0670623779297" height="119.55000305175781" transform="matrix(1,0,0,1,-86.9,-59.7)"></rect><text joint-selector="text" id="v-2094" font-size="24px" xml:space="preserve" y="0.8em" fill="#cccccc" text-anchor="middle" pointer-events="none" font-family="Open Sans" font-weight="normal" transform="matrix(1,0,0,1,0,-53.6)"><tspan dy="0" >Requests to</tspan><tspan dy="1.2em" x="0" >persist changes</tspan><tspan dy="1.2em" x="0" >in the 'User'</tspan><tspan dy="1.2em" x="0" >aggregate</tspan></text></g><g id="v-2093"  label-idx="1" cursor="move" transform="matrix(1,0,0,1,1559,259.20001220703125)" style="cursor: default; opacity: 1;"><rect joint-selector="rect" id="v-2097" fill="#ffffff" rx="3" ry="3"  width="0" height="0" transform="matrix(1,0,0,1,0,0)" display="none"></rect><text joint-selector="text" id="v-2096" fill="#000000" font-size="14" text-anchor="middle" pointer-events="none"></text></g></g><g  display="none" style="display: none;"><g  transform="translate(1569, 202)" id="v-2089"><circle  idx="0" r="10"></circle><path  idx="0" d="M16,5.333c-7.732,0-14,4.701-14,10.5c0,1.982,0.741,3.833,2.016,5.414L2,25.667l5.613-1.441c2.339,1.317,5.237,2.107,8.387,2.107c7.732,0,14-4.701,14-10.5C30,10.034,23.732,5.333,16,5.333z" transform="translate(5, -33)"></path><path  idx="0" transform="scale(.8) translate(9.5, -37)" d="M24.778,21.419 19.276,15.917 24.777,10.415 21.949,7.585 16.447,13.087 10.945,7.585 8.117,10.415 13.618,15.917 8.116,21.419 10.946,24.248 16.447,18.746 21.948,24.248z"><title>Remove vertex.</title></path></g></g><g  id="v-2102" display="none"><g  id="v-2090"><path  end="source" d="M 26 0 L 0 13 L 26 26 z"></path></g><g  id="v-2091"><path  end="target" d="M 26 0 L 0 13 L 26 26 z"></path></g></g><g  id="v-2101" display="none"><g  id="v-2088" transform="translate(1456.1753225311058, 247.23533289544736) "><g  event="remove"><circle r="11"></circle><path transform="scale(.8) translate(-16, -16)" d="M24.778,21.419 19.276,15.917 24.777,10.415 21.949,7.585 16.447,13.087 10.945,7.585 8.117,10.415 13.618,15.917 8.116,21.419 10.946,24.248 16.447,18.746 21.948,24.248z"></path><title>Remove link.</title></g><g  event="link:options"><circle r="11" transform="translate(25)"></circle><path fill="white" transform="scale(.55) translate(29, -16)" d="M31.229,17.736c0.064-0.571,0.104-1.148,0.104-1.736s-0.04-1.166-0.104-1.737l-4.377-1.557c-0.218-0.716-0.504-1.401-0.851-2.05l1.993-4.192c-0.725-0.91-1.549-1.734-2.458-2.459l-4.193,1.994c-0.647-0.347-1.334-0.632-2.049-0.849l-1.558-4.378C17.165,0.708,16.588,0.667,16,0.667s-1.166,0.041-1.737,0.105L12.707,5.15c-0.716,0.217-1.401,0.502-2.05,0.849L6.464,4.005C5.554,4.73,4.73,5.554,4.005,6.464l1.994,4.192c-0.347,0.648-0.632,1.334-0.849,2.05l-4.378,1.557C0.708,14.834,0.667,15.412,0.667,16s0.041,1.165,0.105,1.736l4.378,1.558c0.217,0.715,0.502,1.401,0.849,2.049l-1.994,4.193c0.725,0.909,1.549,1.733,2.459,2.458l4.192-1.993c0.648,0.347,1.334,0.633,2.05,0.851l1.557,4.377c0.571,0.064,1.148,0.104,1.737,0.104c0.588,0,1.165-0.04,1.736-0.104l1.558-4.377c0.715-0.218,1.399-0.504,2.049-0.851l4.193,1.993c0.909-0.725,1.733-1.549,2.458-2.458l-1.993-4.193c0.347-0.647,0.633-1.334,0.851-2.049L31.229,17.736zM16,20.871c-2.69,0-4.872-2.182-4.872-4.871c0-2.69,2.182-4.872,4.872-4.872c2.689,0,4.871,2.182,4.871,4.872C20.871,18.689,18.689,20.871,16,20.871z"></path><title>Link options.</title></g></g></g></g><!--z-index:33--><g   id="j_153" ><path  stroke="#cccccc" d="M 2169 262 L 2310 206 C 2316 203.33333333333331 2322 203.33333333333331 2328 206 L 2469 262" id="v-2119" stroke-width="2" stroke-dasharray="30 30" fill="none" style="opacity: 1;"></path><path  fill="black" stroke="black" d="M 0 0 0 0" transform="matrix(0.9284766089996245,-0.3713908810681253,0.3713908810681253,0.9284766089996245,2169,262)"></path><path  fill="#cccccc" stroke="#cccccc" d="M 20 0 L 0 10 L 20 20 z" id="v-2121" transform="matrix(-0.928476707906966,-0.3713906337998342,0.3713906337998342,-0.928476707906966,2465.286192772321,271.2847757119899)" style="opacity: 1;"></path><path  d="M 2169 262 L 2310 206 C 2316 203.33333333333331 2322 203.33333333333331 2328 206 L 2469 262" id="v-2120" fill="none" style="cursor: auto; pointer-events: visiblepainted;"></path><g ><g id="v-2110"  label-idx="0" cursor="move" transform="matrix(1,0,0,1,2319,190.5)" style="cursor: default; opacity: 1;"><rect joint-selector="rect" id="v-2114" fill="#111111" rx="3" ry="3" pointer-events="none" width="158.74220275878906" height="33.150001525878906" transform="matrix(1,0,0,1,-80.3,-16.6)"></rect><text joint-selector="text" id="v-2113" font-size="24px" xml:space="preserve" y="0.8em" fill="#cccccc" text-anchor="middle" pointer-events="none" font-family="Open Sans" font-weight="normal" transform="matrix(1,0,0,1,0,-10.4)"><tspan dy="0" >Writes data to</tspan></text></g><g id="v-2111"  label-idx="1" cursor="move" transform="matrix(1,0,0,1,2319,221)" style="cursor: default; opacity: 1;"><rect joint-selector="rect" id="v-2116" fill="#111111" rx="3" ry="3"  pointer-events="none" width="49.961524963378906" height="23.400002479553223" transform="matrix(1,0,0,1,-24.8,-11.7)" style="display: block;"></rect><text joint-selector="text" id="v-2115" font-size="17px" xml:space="preserve" y="0.8em" fill="#cccccc" text-anchor="middle" pointer-events="none"  font-family="Open Sans" font-weight="normal" transform="matrix(1,0,0,1,0,-7.7)" style="display: block;"><tspan dy="0" >[JDBC]</tspan></text></g><g id="v-2112"  label-idx="2" cursor="move" transform="matrix(1,0,0,1,2309,229.5)" style="cursor: default; opacity: 1;"><rect joint-selector="rect" id="v-2118" fill="#ffffff" rx="3" ry="3"  width="0" height="0" transform="matrix(1,0,0,1,0,0)" display="none"></rect><text joint-selector="text" id="v-2117" fill="#000000" font-size="14" text-anchor="middle" pointer-events="none"></text></g></g><g  display="none" style="display: none;"><g  transform="translate(2319, 202)" id="v-2107"><circle  idx="0" r="10"></circle><path  idx="0" d="M16,5.333c-7.732,0-14,4.701-14,10.5c0,1.982,0.741,3.833,2.016,5.414L2,25.667l5.613-1.441c2.339,1.317,5.237,2.107,8.387,2.107c7.732,0,14-4.701,14-10.5C30,10.034,23.732,5.333,16,5.333z" transform="translate(5, -33)"></path><path  idx="0" transform="scale(.8) translate(9.5, -37)" d="M24.778,21.419 19.276,15.917 24.777,10.415 21.949,7.585 16.447,13.087 10.945,7.585 8.117,10.415 13.618,15.917 8.116,21.419 10.946,24.248 16.447,18.746 21.948,24.248z"><title>Remove vertex.</title></path></g></g><g  id="v-2123" display="none"><g  id="v-2108"><path  end="source" d="M 26 0 L 0 13 L 26 26 z"></path></g><g  id="v-2109"><path  end="target" d="M 26 0 L 0 13 L 26 26 z"></path></g></g><g  id="v-2122" display="none"><g  id="v-2106" transform="translate(2206.175322531106, 247.23533289544736) "><g  event="remove"><circle r="11"></circle><path transform="scale(.8) translate(-16, -16)" d="M24.778,21.419 19.276,15.917 24.777,10.415 21.949,7.585 16.447,13.087 10.945,7.585 8.117,10.415 13.618,15.917 8.116,21.419 10.946,24.248 16.447,18.746 21.948,24.248z"></path><title>Remove link.</title></g><g  event="link:options"><circle r="11" transform="translate(25)"></circle><path fill="white" transform="scale(.55) translate(29, -16)" d="M31.229,17.736c0.064-0.571,0.104-1.148,0.104-1.736s-0.04-1.166-0.104-1.737l-4.377-1.557c-0.218-0.716-0.504-1.401-0.851-2.05l1.993-4.192c-0.725-0.91-1.549-1.734-2.458-2.459l-4.193,1.994c-0.647-0.347-1.334-0.632-2.049-0.849l-1.558-4.378C17.165,0.708,16.588,0.667,16,0.667s-1.166,0.041-1.737,0.105L12.707,5.15c-0.716,0.217-1.401,0.502-2.05,0.849L6.464,4.005C5.554,4.73,4.73,5.554,4.005,6.464l1.994,4.192c-0.347,0.648-0.632,1.334-0.849,2.05l-4.378,1.557C0.708,14.834,0.667,15.412,0.667,16s0.041,1.165,0.105,1.736l4.378,1.558c0.217,0.715,0.502,1.401,0.849,2.049l-1.994,4.193c0.725,0.909,1.549,1.733,2.459,2.458l4.192-1.993c0.648,0.347,1.334,0.633,2.05,0.851l1.557,4.377c0.571,0.064,1.148,0.104,1.737,0.104c0.588,0,1.165-0.04,1.736-0.104l1.558-4.377c0.715-0.218,1.399-0.504,2.049-0.851l4.193,1.993c0.909-0.725,1.733-1.549,2.458-2.458l-1.993-4.193c0.347-0.647,0.633-1.334,0.851-2.049L31.229,17.736zM16,20.871c-2.69,0-4.872-2.182-4.872-4.871c0-2.69,2.182-4.872,4.872-4.872c2.689,0,4.871,2.182,4.871,4.872C20.871,18.689,18.689,20.871,16,20.871z"></path><title>Link options.</title></g></g></g></g><!--z-index:34--><g   id="j_154" ><path  stroke="#cccccc" d="M 632 802 L 1007 502" id="v-2136" stroke-width="2" stroke-dasharray="30 30" fill="none" style="opacity: 1;"></path><path  fill="black" stroke="black" d="M 0 0 0 0" transform="matrix(0.7808686753084834,-0.624695215222571,0.624695215222571,0.7808686753084834,631.5,802)"></path><path  fill="#cccccc" stroke="#cccccc" d="M 20 0 L 0 10 L 20 20 z" id="v-2138" transform="matrix(-0.7808688416748546,0.6246950072646418,-0.6246950072646418,-0.7808688416748546,1012.7469226690824,509.80868658628964)" style="opacity: 1;"></path><path  d="M 632 802 L 1007 502" id="v-2137" fill="none" style="cursor: auto; pointer-events: visiblepainted;"></path><g ><g id="v-2130"  label-idx="0" cursor="move" transform="matrix(1,0,0,1,819.5,652)" style="cursor: default; opacity: 1;"><rect joint-selector="rect" id="v-2133" fill="#111111" rx="3" ry="3" pointer-events="none" width="169.1307373046875" height="148.35001373291016" transform="matrix(1,0,0,1,-84.5,-74.2)"></rect><text joint-selector="text" id="v-2132" font-size="24px" xml:space="preserve" y="0.8em" fill="#cccccc" text-anchor="middle" pointer-events="none" font-family="Open Sans" font-weight="normal" transform="matrix(1,0,0,1,0,-68)"><tspan dy="0" >Delegates</tspan><tspan dy="1.2em" x="0" >handling of the</tspan><tspan dy="1.2em" x="0" >profile</tspan><tspan dy="1.2em" x="0" >management</tspan><tspan dy="1.2em" x="0" >command</tspan></text></g><g id="v-2131"  label-idx="1" cursor="move" transform="matrix(1,0,0,1,809.5,721.5999755859375)" style="cursor: default; opacity: 1;"><rect joint-selector="rect" id="v-2135" fill="#ffffff" rx="3" ry="3"  width="0" height="0" transform="matrix(1,0,0,1,0,0)" display="none"></rect><text joint-selector="text" id="v-2134" fill="#000000" font-size="14" text-anchor="middle" pointer-events="none"></text></g></g><g  display="none" style="display: none;"></g><g  id="v-2140" display="none"><g  id="v-2128"><path  end="source" d="M 26 0 L 0 13 L 26 26 z"></path></g><g  id="v-2129"><path  end="target" d="M 26 0 L 0 13 L 26 26 z"></path></g></g><g  id="v-2139" display="none"><g  id="v-2127" transform="translate(663.2347523777212, 777.012198097823) "><g  event="remove"><circle r="11"></circle><path transform="scale(.8) translate(-16, -16)" d="M24.778,21.419 19.276,15.917 24.777,10.415 21.949,7.585 16.447,13.087 10.945,7.585 8.117,10.415 13.618,15.917 8.116,21.419 10.946,24.248 16.447,18.746 21.948,24.248z"></path><title>Remove link.</title></g><g  event="link:options"><circle r="11" transform="translate(25)"></circle><path fill="white" transform="scale(.55) translate(29, -16)" d="M31.229,17.736c0.064-0.571,0.104-1.148,0.104-1.736s-0.04-1.166-0.104-1.737l-4.377-1.557c-0.218-0.716-0.504-1.401-0.851-2.05l1.993-4.192c-0.725-0.91-1.549-1.734-2.458-2.459l-4.193,1.994c-0.647-0.347-1.334-0.632-2.049-0.849l-1.558-4.378C17.165,0.708,16.588,0.667,16,0.667s-1.166,0.041-1.737,0.105L12.707,5.15c-0.716,0.217-1.401,0.502-2.05,0.849L6.464,4.005C5.554,4.73,4.73,5.554,4.005,6.464l1.994,4.192c-0.347,0.648-0.632,1.334-0.849,2.05l-4.378,1.557C0.708,14.834,0.667,15.412,0.667,16s0.041,1.165,0.105,1.736l4.378,1.558c0.217,0.715,0.502,1.401,0.849,2.049l-1.994,4.193c0.725,0.909,1.549,1.733,2.459,2.458l4.192-1.993c0.648,0.347,1.334,0.633,2.05,0.851l1.557,4.377c0.571,0.064,1.148,0.104,1.737,0.104c0.588,0,1.165-0.04,1.736-0.104l1.558-4.377c0.715-0.218,1.399-0.504,2.049-0.851l4.193,1.993c0.909-0.725,1.733-1.549,2.458-2.458l-1.993-4.193c0.347-0.647,0.633-1.334,0.851-2.049L31.229,17.736zM16,20.871c-2.69,0-4.872-2.182-4.872-4.871c0-2.69,2.182-4.872,4.872-4.872c2.689,0,4.871,2.182,4.871,4.872C20.871,18.689,18.689,20.871,16,20.871z"></path><title>Link options.</title></g></g></g></g><!--z-index:35--><!--z-index:36--><!--z-index:37--><!--z-index:38--><!--z-index:39--><!--z-index:40--><!--z-index:41--><!--z-index:42--><!--z-index:43--><!--z-index:44--><!--z-index:45--><!--z-index:46--><!--z-index:47--><!--z-index:48--><!--z-index:49--><!--z-index:50--><!--z-index:51--><!--z-index:52--><!--z-index:53--><!--z-index:54--><!--z-index:55--><!--z-index:56--><!--z-index:57--><!--z-index:58--><!--z-index:59--><!--z-index:60--><!--z-index:61--><!--z-index:62--><!--z-index:63--><!--z-index:64--><!--z-index:65--><!--z-index:66--><!--z-index:67--><!--z-index:68--><!--z-index:69--><!--z-index:70--><!--z-index:71--><!--z-index:72--><!--z-index:73--><!--z-index:74--><!--z-index:75--><!--z-index:76--><!--z-index:77--><!--z-index:78--><!--z-index:79--><!--z-index:80--><!--z-index:81--></g><g ></g><g ></g><g ></g></g></svg>